<?xml version="1.0" standalone="no"?>
<!DOCTYPE svg PUBLIC "-//W3C//DTD SVG 20010904//EN"
 "http://www.w3.org/TR/2001/REC-SVG-20010904/DTD/svg10.dtd">
<svg version="1.0" xmlns="http://www.w3.org/2000/svg"
 width="16.000000pt" height="16.000000pt" viewBox="0 0 16.000000 16.000000"
 preserveAspectRatio="xMidYMid meet">
<metadata>
Created by potrace 1.11, written by Peter Selinger 2001-2013
</metadata>
<g transform="translate(0.000000,16.000000) scale(0.006349,-0.006349)"
fill="#000000" stroke="none">
<path d="M1429 1957 c-8 -7 -104 -130 -212 -274 -109 -145 -201 -263 -205
-263 -4 0 -43 47 -86 105 -43 58 -87 110 -97 115 -31 17 -64 11 -91 -17 -49
-54 -721 -958 -732 -985 -13 -34 6 -72 43 -87 18 -8 382 -11 1219 -9 l1194 3
20 25 c13 16 18 35 16 55 -5 37 -960 1317 -996 1334 -30 14 -53 13 -73 -2z
m445 -729 c218 -291 396 -530 396 -533 0 -3 -457 -5 -1016 -5 -850 0 -1015 2
-1012 14 4 18 541 735 550 736 4 0 45 -50 90 -110 50 -67 92 -113 106 -116 53
-14 67 0 275 276 111 149 205 269 209 268 4 -2 185 -240 402 -530z"/>
</g>
</svg>
